<svg width="512" height="512" viewBox="0 0 512 512" fill="none" xmlns="http://www.w3.org/2000/svg">
  <rect width="512" height="512" fill="#3b82f6"/>
  <rect x="128" y="96" width="256" height="320" rx="16" fill="white"/>
  <rect x="152" y="120" width="208" height="80" rx="8" fill="#1f2937"/>
  <text x="256" y="170" text-anchor="middle" fill="white" font-family="monospace" font-size="24" font-weight="bold">¥123,456</text>
  <circle cx="180" cy="240" r="20" fill="#f3f4f6" stroke="#d1d5db" stroke-width="2"/>
  <circle cx="256" cy="240" r="20" fill="#f3f4f6" stroke="#d1d5db" stroke-width="2"/>
  <circle cx="332" cy="240" r="20" fill="#f3f4f6" stroke="#d1d5db" stroke-width="2"/>
  <circle cx="180" cy="290" r="20" fill="#f3f4f6" stroke="#d1d5db" stroke-width="2"/>
  <circle cx="256" cy="290" r="20" fill="#f3f4f6" stroke="#d1d5db" stroke-width="2"/>
  <circle cx="332" cy="290" r="20" fill="#f3f4f6" stroke="#d1d5db" stroke-width="2"/>
  <circle cx="180" cy="340" r="20" fill="#f3f4f6" stroke="#d1d5db" stroke-width="2"/>
  <circle cx="256" cy="340" r="20" fill="#f3f4f6" stroke="#d1d5db" stroke-width="2"/>
  <circle cx="332" cy="340" r="20" fill="#10b981" stroke="#059669" stroke-width="2"/>
  <text x="180" y="246" text-anchor="middle" fill="#1f2937" font-size="8" font-weight="bold">1</text>
  <text x="256" y="246" text-anchor="middle" fill="#1f2937" font-size="8" font-weight="bold">2</text>
  <text x="332" y="246" text-anchor="middle" fill="#1f2937" font-size="8" font-weight="bold">3</text>
  <text x="180" y="296" text-anchor="middle" fill="#1f2937" font-size="8" font-weight="bold">4</text>
  <text x="256" y="296" text-anchor="middle" fill="#1f2937" font-size="8" font-weight="bold">5</text>
  <text x="332" y="296" text-anchor="middle" fill="#1f2937" font-size="8" font-weight="bold">6</text>
  <text x="180" y="346" text-anchor="middle" fill="#1f2937" font-size="8" font-weight="bold">7</text>
  <text x="256" y="346" text-anchor="middle" fill="#1f2937" font-size="8" font-weight="bold">8</text>
  <text x="332" y="346" text-anchor="middle" fill="white" font-size="10" font-weight="bold">=</text>
</svg>
